<svg id="Warstwa_1" data-name="Warstwa 1" xmlns="http://www.w3.org/2000/svg" viewBox="0 0 1553 36"><defs><style>.cls-1{fill:#fff;}</style></defs><title>clouds</title><path class="cls-1" d="M312.2,21.5A19.45,19.45,0,0,0,301.05,25a27,27,0,0,0-51.36,3.32A39.88,39.88,0,0,0,177.56,19a27.61,27.61,0,0,0-48.68,5.27A18.32,18.32,0,0,0,105.4,18.6a27.6,27.6,0,0,0-48.84,6.83,17.19,17.19,0,0,0-31.72,4.64A17.56,17.56,0,0,0,0,36H331.1A19.45,19.45,0,0,0,312.2,21.5Z"/><path class="cls-1" d="M651.7,22.9a16.42,16.42,0,0,0-10.48,3.73,30.35,30.35,0,0,0-54.06,3.06A18.68,18.68,0,0,0,555.4,36H667.8A16.42,16.42,0,0,0,651.7,22.9Z"/><path class="cls-1" d="M968.5,16.7A26.46,26.46,0,0,0,943,36h51A26.43,26.43,0,0,0,968.5,16.7Z"/><path class="cls-1" d="M1147,22.9a16.43,16.43,0,0,0-10.47,3.76,30.33,30.33,0,0,0-50.64-2.87,16.43,16.43,0,0,0-5.16,2.87,30.34,30.34,0,0,0-54.07,3A18.68,18.68,0,0,0,994.9,36h168.2A16.42,16.42,0,0,0,1147,22.9Z"/><path class="cls-1" d="M1543.8,7.8a27,27,0,0,0-26.17,20.33,39.88,39.88,0,0,0-72.12-9.07,27.54,27.54,0,0,0-48.64,5.18,18.38,18.38,0,0,0-23.48-5.66,27.62,27.62,0,0,0-48.84,6.84,17.18,17.18,0,0,0-31.71,4.65A17.56,17.56,0,0,0,1268,36h302.8V34.8A27,27,0,0,0,1543.8,7.8Z"/></svg>