<svg height="36" viewBox="0 0 1553 36" width="1553" xmlns="http://www.w3.org/2000/svg"><g fill="#fff" fill-rule="evenodd"><path d="m-26-5873h1579v11105h-1579z"/><g fill-rule="nonzero"><g transform="translate(-218)"><path d="m248.4 36c-3-5.3-8.7-8.8-15.2-8.8s-12.2 3.6-15.2 8.8z"/><path d="m276.7 36c.1-.7.1-1.4.1-2.1 0-9.5-7.7-17.2-17.2-17.2s-17.2 7.7-17.2 17.2c0 .7 0 1.4.1 2.1z"/><path d="m328.2 36c0-.6.1-1.1.1-1.7 0-15.2-12.3-27.6-27.6-27.6-15.2 0-27.6 12.3-27.6 27.6 0 .6 0 1.2.1 1.7z"/><path d="m350.3 36c0-.4 0-.7 0-1.1 0-10.1-8.2-18.4-18.4-18.4-10.1 0-18.4 8.2-18.4 18.4v1.1z"/><path d="m400.1 36c0-.6.1-1.1.1-1.7 0-15.2-12.3-27.6-27.6-27.6s-27.6 12.3-27.6 27.6c0 .6 0 1.2.1 1.7z"/><path d="m469.2 36c-1.9-20.2-19-36-39.7-36s-37.7 15.8-39.7 36z"/><path d="m520.9 36c0-.4 0-.8 0-1.2 0-14.9-12.1-27-27-27s-27 12.1-27 27v1.2z"/><path d="m549.1 36c-2.2-8.4-9.8-14.5-18.9-14.5s-16.7 6.2-18.9 14.5z"/><path d="m808.8 36c-2.5-7.4-9.5-12.7-17.7-12.7s-15.2 5.3-17.7 12.7z"/><path d="m862.8 36c-2.8-13.9-15.1-24.5-29.8-24.5-14.8 0-27.1 10.5-29.8 24.5z"/><path d="m885.8 36c-1.5-7.5-8.2-13.1-16.1-13.1-8 0-14.6 5.6-16.1 13.1z"/><path d="m1212 36c-3.1-11.2-13.4-19.3-25.5-19.3-12.2 0-22.4 8.2-25.5 19.3z"/><path d="m1248.3 36c-2.5-7.4-9.5-12.7-17.7-12.7s-15.2 5.3-17.7 12.7z"/><path d="m1302.3 36c-2.8-13.9-15.1-24.5-29.8-24.5-14.8 0-27.1 10.5-29.8 24.5z"/><path d="m1325.3 36c-1.5-7.5-8.2-13.1-16.1-13.1s-14.6 5.6-16.1 13.1h31.9z"/></g><g transform="translate(1050)"><path d="m36.1 36c-2.5-7.4-9.5-12.7-17.7-12.7s-15.2 5.3-17.7 12.7z"/><path d="m90.1 36c-2.8-13.9-15.1-24.5-29.8-24.5s-27.1 10.5-29.8 24.5z"/><path d="m113.1 36c-1.5-7.5-8.2-13.1-16.1-13.1s-14.6 5.6-16.1 13.1z"/><path d="m248.4 36c-3-5.3-8.7-8.8-15.2-8.8s-12.2 3.5-15.2 8.8z"/><path d="m276.7 36c.1-.7.1-1.4.1-2.1 0-9.5-7.7-17.2-17.2-17.2s-17.2 7.7-17.2 17.2c0 .7 0 1.4.1 2.1z"/><path d="m328.2 36c0-.6.1-1.1.1-1.7 0-15.2-12.3-27.6-27.6-27.6s-27.6 12.3-27.6 27.6c0 .6 0 1.2.1 1.7z"/><path d="m350.3 36c0-.4 0-.7 0-1.1 0-10.1-8.2-18.4-18.4-18.4s-18.4 8.2-18.4 18.4v1.1z"/><path d="m400 36c0-.6.1-1.1.1-1.7 0-15.2-12.3-27.6-27.6-27.6s-27.5 12.3-27.5 27.6c0 .6 0 1.2.1 1.7z"/><path d="m469.2 36c-1.9-20.2-19-36-39.7-36s-37.7 15.8-39.7 36z"/><path d="m520.8 36c0-.4 0-.8 0-1.2 0-14.9-12.1-27-27-27s-27 12.1-27 27v1.2z"/></g></g></g></svg>