<svg viewBox="0 0 1553 36" xmlns="http://www.w3.org/2000/svg"><g fill="#fff"><path d="m309.2 21.5a19.45 19.45 0 0 0 -11.15 3.5 27 27 0 0 0 -51.36 3.32 39.88 39.88 0 0 0 -72.13-9.32 27.61 27.61 0 0 0 -48.68 5.27 18.32 18.32 0 0 0 -23.48-5.67 27.6 27.6 0 0 0 -48.84 6.83 17.19 17.19 0 0 0 -31.72 4.64 17.56 17.56 0 0 0 -24.84 5.93h331.1a19.45 19.45 0 0 0 -18.9-14.5z"/><path d="m648.7 22.9a16.42 16.42 0 0 0 -10.48 3.73 30.35 30.35 0 0 0 -54.06 3.06 18.68 18.68 0 0 0 -31.76 6.31h112.4a16.42 16.42 0 0 0 -16.1-13.1z"/><path d="m927.5 16.7a26.46 26.46 0 0 0 -25.5 19.3h51a26.43 26.43 0 0 0 -25.5-19.3z"/><path d="m1106 22.9a16.43 16.43 0 0 0 -10.47 3.76 30.33 30.33 0 0 0 -50.64-2.87 16.43 16.43 0 0 0 -5.16 2.87 30.34 30.34 0 0 0 -54.07 3 18.68 18.68 0 0 0 -31.76 6.34h168.2a16.42 16.42 0 0 0 -16.1-13.1z"/><path d="m1502.8 7.8a27 27 0 0 0 -26.17 20.33 39.88 39.88 0 0 0 -72.12-9.07 27.54 27.54 0 0 0 -48.64 5.18 18.38 18.38 0 0 0 -23.48-5.66 27.62 27.62 0 0 0 -48.84 6.84 17.18 17.18 0 0 0 -31.71 4.65 17.56 17.56 0 0 0 -24.84 5.93h302.8v-1.2a27 27 0 0 0 -27-27z"/></g></svg>