<svg viewBox="0 0 33 34" xmlns="http://www.w3.org/2000/svg" xmlns:xlink="http://www.w3.org/1999/xlink"><linearGradient id="a" gradientTransform="matrix(32.48 0 0 -32.55 8846.08 13850.04)" gradientUnits="userSpaceOnUse" x1="-271.85" x2="-271.85" y1="424.45" y2="425.5"><stop offset="0" stop-color="#ccecdf" stop-opacity=".9"/><stop offset="1" stop-color="#d5f8c2"/></linearGradient><mask id="b" height="34.62" maskUnits="userSpaceOnUse" width="32.48" x=".2" y=".72"><rect fill="#fff" height="32.55" rx="16.23" width="32.48" x=".2" y=".72"/></mask><rect fill="url(#a)" height="32.55" rx="16.23" width="32.48" x=".2" y=".72"/><g mask="url(#b)"><path d="m4.83 31.32c8.78 3 15.13 3 24 0-3.55-5.11-18.31-7.04-24 0z" fill="#e8c787"/><path d="m8 31.7c3.31-4 8.15-4.57 9.77-4.76-1.85-.09-8.2.42-12 3.78-.05.66.55.98 2.23.98z" fill="#dca174"/><path d="m27.46 31.46c-2.46-2.66-5.84-3.66-7.83-4.27 1.84.27 6.82 1.78 8.85 4s1.44 2.93-1.02.27z" fill="#fff7d1"/><path d="m4.34 31.51c2.33-3.69 9.18-5.06 12.75-5.06 2.56 0 9.43 1.16 12.27 5.06 4.86 6.67-26.24 1.95-25.02 0z" fill="none" stroke="#8e635a" stroke-linecap="round" stroke-linejoin="round" stroke-width=".79"/><ellipse cx="17.29" cy="28.18" fill="#dca174" rx="2.18" ry="1"/><path d="m17.92 23.26c-4.11 0-11.83-3.85-10.82-13.33 11.35-1.08 14.99 10.81 10.82 13.33z" fill="#b3e572"/><path d="m17.92 23.26c1.29-1.26 1.64-1.26 1.64-4.44-.35-2.57-.92-3.5-1.94-4.51a9.24 9.24 0 0 1 6.19-3.49c1.74 2.84 0 9.43-5.88 12.44z" fill="#b3e572"/><path d="m17.92 23.26c-4.33 0-11.48-3.71-10.48-13.19.4 5.15 6 12.44 11.68 11.9.88-.08-.32.84-1.2 1.29z" fill="#76c45b"/><path d="m18.49 13.27c1.42.15 3.94 6.64 1.22 9a1 1 0 0 1 -.91.23 15.28 15.28 0 0 0 .41-4.28 15.55 15.55 0 0 0 -1.67-4c.46-.64.81-.97.95-.95z" fill="#76c45b"/><path d="m7.2 10.33c6 .45 10.4 3.74 11.69 10.35 0-3.54-1.46-7.2-4-9s-4.46-1.68-7.69-1.35zm15.43.57c.53 1.68 1 3.94 0 7.92 2.21-3.8 1.38-2.77 1.46-5a9.46 9.46 0 0 0 -.18-2.92c-.85-.29-1.28-.29-1.28 0z" fill="#f9ffda"/><g fill="none" stroke="#2f683e" stroke-width=".79"><path d="m17 23.28c-.79-3.55-3.15-7.9-6-9.76" stroke-linecap="round" stroke-linejoin="round"/><path d="m17.18 23.46c-4.11 0-11.09-4-10.08-13.53 11.35-1.08 14.25 11 10.08 13.53z" stroke-linejoin="round"/><path d="m17.38 14.33a8.16 8.16 0 0 1 6.55-3.47c.71 3.87 0 10.51-6.78 12.61" stroke-linejoin="round"/><path d="m21.13 14.61a11.4 11.4 0 0 0 -2.13 3.61" stroke-linecap="round" stroke-linejoin="round"/><path d="m17 23.46a17.5 17.5 0 0 1 .29 4.74"/></g></g></svg>