<svg xmlns="http://www.w3.org/2000/svg" viewBox="0 0 16.1 15.62"><defs><style>.a{fill:#fff;}</style></defs><g transform="translate(0 -0.2)"><path class="a" d="M8,0A8.024,8.024,0,0,0,0,8a8.085,8.085,0,0,0,5.5,7.6c.4.1.5-.2.5-.4V13.8c-2.2.5-2.7-1-2.7-1a2.689,2.689,0,0,0-.9-1.2c-.7-.5.1-.5.1-.5a1.741,1.741,0,0,1,1.2.8,1.632,1.632,0,0,0,2.3.7,2.257,2.257,0,0,1,.5-1.1c-1.8-.2-3.6-.9-3.6-4a2.865,2.865,0,0,1,.8-2.1,2.486,2.486,0,0,1,.1-2.1s.7-.2,2.2.8a6.448,6.448,0,0,1,2-.3,6.448,6.448,0,0,1,2,.3c1.5-1,2.2-.8,2.2-.8a2.983,2.983,0,0,1,.1,2.1,3.227,3.227,0,0,1,.8,2.1c0,3.1-1.9,3.7-3.7,3.9A2.578,2.578,0,0,1,10,13v2.2c0,.2.1.5.6.4A8.085,8.085,0,0,0,16.1,8,8.176,8.176,0,0,0,8,0Z" transform="translate(0 0.2)"/></g></svg>