<svg xmlns="http://www.w3.org/2000/svg" viewBox="0 0 16 16"><defs><style>.a{fill:#fff;}</style></defs><path class="a" d="M15,16H1a1,1,0,0,1-1-1V1A1,1,0,0,1,1,0H15a1,1,0,0,1,1,1V15A1,1,0,0,1,15,16ZM10.008,6h0V10.88c0,.132,0,.156-.085.241l-.869.842v.181h4.216v-.181l-.838-.823a.253.253,0,0,1-.1-.241V4.855a.25.25,0,0,1,.1-.24l.858-.824V3.61H10.322L8.2,8.893,5.8,3.61H2.683v.181l1,1.21a.417.417,0,0,1,.139.351V10.1a.55.55,0,0,1-.147.472l-1.129,1.37v.181h3.2v-.181l-1.129-1.37a.573.573,0,0,1-.156-.472V5.994l2.81,6.13H7.6Z"/></svg>