<svg xmlns="http://www.w3.org/2000/svg" viewBox="0 0 16 14"><defs><style>.a{fill:#18acfa;}</style></defs><path class="a" d="M3,2H1A1,1,0,0,1,0,1H0A1,1,0,0,1,1,0H3A1,1,0,0,1,4,1H4A1,1,0,0,1,3,2Z" transform="translate(6 12)"/><path class="a" d="M7,2H1A1,1,0,0,1,0,1H0A1,1,0,0,1,1,0H7A1,1,0,0,1,8,1H8A1,1,0,0,1,7,2Z" transform="translate(4 8)"/><path class="a" d="M11,2H1A1,1,0,0,1,0,1H0A1,1,0,0,1,1,0H11a1,1,0,0,1,1,1h0A1,1,0,0,1,11,2Z" transform="translate(2 4)"/><path class="a" d="M15,2H1A1,1,0,0,1,0,1H0A1,1,0,0,1,1,0H15a1,1,0,0,1,1,1h0A1,1,0,0,1,15,2Z"/></svg>