<svg height="220" viewBox="0 0 312 220" width="312" xmlns="http://www.w3.org/2000/svg" xmlns:xlink="http://www.w3.org/1999/xlink"><defs><circle id="a" cx="51.149997" cy="51.149997" r="38.849998"/><filter id="b" height="107.7%" width="106.4%" x="-3.2%" y="-1.9%"><feOffset dx="0" dy="2" in="SourceAlpha" result="shadowOffsetOuter1"/><feGaussianBlur in="shadowOffsetOuter1" result="shadowBlurOuter1" stdDeviation=".5"/><feColorMatrix in="shadowBlurOuter1" type="matrix" values="0 0 0 0 0.882352941   0 0 0 0 0.643137255   0 0 0 0 0.321568627  0 0 0 0.2 0"/></filter><path id="c" d="m51.1900515 63.0153712-14.5900537-8.6456244 14.5900537 20.6302487 14.5989682-20.6302487-14.6019397 8.6456244zm.2198909-35.7153728-14.5900538 24.2912235 14.5900538 8.6545683 14.5900537-8.6456245z"/><filter id="d" height="107.3%" width="111.9%" x="-6%" y="-3.7%"><feGaussianBlur in="SourceAlpha" result="shadowBlurInner1" stdDeviation="1"/><feOffset dx="0" dy="1" in="shadowBlurInner1" result="shadowOffsetInner1"/><feComposite in="shadowOffsetInner1" in2="SourceAlpha" k2="-1" k3="1" operator="arithmetic" result="shadowInnerInner1"/><feColorMatrix in="shadowInnerInner1" type="matrix" values="0 0 0 0 0.927667942   0 0 0 0 0.663076731   0 0 0 0 0.313816331  0 0 0 1 0"/></filter><filter id="e" height="130%" width="112.4%" x="-6.2%" y="-15%"><feGaussianBlur in="SourceGraphic" stdDeviation="3"/></filter><linearGradient id="f" x1="3.414751%" x2="97.666986%" y1="40.226967%" y2="40.226966%"><stop offset="0" stop-color="#f7eba2"/><stop offset="1" stop-color="#f9f7cf"/></linearGradient><path id="g" d="m6.01125784 4.02453467c36.71477036.0688905 77.65931736-1.27248078 122.83364116-4.02411382 1.254997-.0764437 10.755091 10.28336155 10.755091 12.98246765 0 2.6991062-8.291962 13.619895-10.755091 13.8778103-51.2548494 5.3669186-90.3626089 5.9595475-117.3232788 1.7778869l-.0000039.0000251c-6.63050626-1.0284065-11.5216163-6.7366211-11.5216163-13.4464075l.00000015-5.1676797c0-3.31370822 2.68629127-5.99999949 5.99999949-5.99999949.00375274 0 .00750547.00000352.0112582.00001056z"/><filter id="h" height="202%" width="122.9%" x="-11.5%" y="-25.5%"><feOffset dx="0" dy="8" in="SourceAlpha" result="shadowOffsetOuter1"/><feGaussianBlur in="shadowOffsetOuter1" result="shadowBlurOuter1" stdDeviation="4"/><feColorMatrix in="shadowBlurOuter1" type="matrix" values="0 0 0 0 0   0 0 0 0 0   0 0 0 0 0  0 0 0 0.1 0"/></filter><mask id="i" fill="#fff"><circle cx="50.999997" cy="50.999997" fill="none" r="50.999997"/></mask><mask id="j" fill="#fff"><circle cx="50.999997" cy="50.999997" fill="none" r="50.999997"/></mask></defs><g fill="none" fill-rule="evenodd"><path d="m-334-5901h1579v11105h-1579z" fill="#fff"/><g transform=""><path d="m14.3999991 159.299991h-8.39999946c-3.3137083 0-5.99999964-2.686292-5.99999964-6s2.68629134-6 5.99999964-6h30.59999816 2.3999999c3.3137083 0 5.9999996-2.686291 5.9999996-5.999999 0-3.313709-2.6862913-6-5.9999996-6h-5.9999997-3.5999998c-3.3137083 0-5.9999996-2.686291-5.9999996-6 0-3.313708 2.6862913-5.999999 5.9999996-5.999999h21.5999988 2.3999998c3.3137083 0 5.9999997-2.686292 5.9999997-6s-2.6862914-6-5.9999997-6-5.9999996-2.686291-5.9999996-5.999999c0-3.313709 2.6862913-5.9999999 5.9999996-5.9999999h67.7999962c3.313708 0 5.999999 2.6862909 5.999999 5.9999999 0 3.313708-2.686291 5.999999-5.999999 5.999999h-9-1.2c-3.313708 0-5.999999 2.686292-5.999999 6s2.686291 6 5.999999 6h1.2.9c3.313709 0 6 2.686291 6 5.999999 0 3.313709-2.686291 6-6 6h-15.2999988-1.2c-3.3137083 0-5.9999996 2.686291-5.9999996 6 0 3.313708 2.6862913 5.999999 5.9999996 5.999999h1.2 10.4999998c3.313708 0 5.999999 2.686292 5.999999 6s-2.686291 6-5.999999 6h-32.6999985-1.1999999c-3.3137083 0-5.9999997 2.686291-5.9999997 5.999999s2.6862914 6 5.9999997 6h.5999999-1.7999999c3.3137083 0 5.9999997 2.686291 5.9999997 5.999999 0 3.313709-2.6862914 6-5.9999997 6h-61.1999963c-3.31370832 0-5.99999966-2.686291-5.99999966-6 0-3.313708 2.68629134-5.999999 5.99999966-5.999999h2.3999998 2.3999999c3.3137083 0 5.9999996-2.686292 5.9999996-6s-2.6862913-5.999999-5.9999996-5.999999z" fill="#f7eba2"/><g fill="#f8f3be"><path d="m49.949997 52.0499969h2.3999999c.9112698 0 1.6499999.7387301 1.6499999 1.6499999s-.7387301 1.6499999-1.6499999 1.6499999h-2.3999999v2.3999999c0 .9112697-.7387301 1.6499999-1.6499999 1.6499999s-1.6499999-.7387302-1.6499999-1.6499999v-2.3999999h-2.3999998c-.9112698 0-1.6499999-.7387301-1.6499999-1.6499999s.7387301-1.6499999 1.6499999-1.6499999h2.3999998v-2.3999999c0-.9112697.7387301-1.6499999 1.6499999-1.6499999s1.6499999.7387302 1.6499999 1.6499999z"/><path d="m152.549991 4.04999976h2.4c.91127 0 1.65.73873012 1.65 1.6499999s-.73873 1.6499999-1.65 1.6499999h-2.4v2.39999986c0 .91126978-.73873 1.64999988-1.65 1.64999988s-1.65-.7387301-1.65-1.64999988v-2.39999986h-2.4c-.91127 0-1.65-.73873012-1.65-1.6499999s.73873-1.6499999 1.65-1.6499999h2.4v-2.39999986c0-.91126978.73873-1.6499999 1.65-1.6499999s1.65.73873012 1.65 1.6499999z"/><path d="m213.749987 117.149993h2.4c.91127 0 1.65.73873 1.65 1.65s-.73873 1.65-1.65 1.65h-2.4v2.4c0 .911269-.73873 1.65-1.65 1.65-.911269 0-1.65-.738731-1.65-1.65v-2.4h-2.399999c-.91127 0-1.65-.73873-1.65-1.65s.73873-1.65 1.65-1.65h2.399999v-2.4c0-.91127.738731-1.65 1.65-1.65.91127 0 1.65.73873 1.65 1.65z"/><path d="m79.9499952 14.5499991h2.3999999c.9112698 0 1.6499999.7387302 1.6499999 1.6499999 0 .9112698-.7387301 1.6499999-1.6499999 1.6499999h-2.3999999v2.3999999c0 .9112698-.7387301 1.6499999-1.6499999 1.6499999-.9112697 0-1.6499999-.7387301-1.6499999-1.6499999v-2.3999999h-2.3999998c-.9112698 0-1.6499999-.7387301-1.6499999-1.6499999 0-.9112697.7387301-1.6499999 1.6499999-1.6499999h2.3999998v-2.3999998c0-.9112698.7387302-1.6499999 1.6499999-1.6499999.9112698 0 1.6499999.7387301 1.6499999 1.6499999z"/></g><path d="m134.502159 140.690435c28.07106-4.944027 49.39783-29.451666 49.39783-58.9404399 0-33.0542403-26.795756-59.8499964-59.849996-59.8499964-33.0542407 0-59.8499968 26.7957561-59.8499968 59.8499964 0 29.2192139 20.9386523 53.5479449 48.6297328 58.7999659" stroke="#dd9535" stroke-linecap="round" stroke-linejoin="round" stroke-width="4.8"/><circle cx="191.249989" cy="134.249992" fill="#f7eba2" r="1.65" transform="matrix(1 0 0 -1 0 268.499984)"/><circle cx="44.249997" cy="79.649995" fill="#f7eba2" r="1.65" transform="matrix(1 0 0 -1 0 159.29999)"/><circle cx="104.549994" cy="14.549999" fill="#f7eba2" r="1.65" transform="matrix(1 0 0 -1 0 29.099998)"/><circle cx="50.999997" cy="50.999997" fill="#e0983a" r="50.999997" transform="translate(73.199996 32.099998)"/><g transform="translate(73.199996 29.399998)"><circle cx="50.999997" cy="50.999997" r="49.349997" stroke="#ffe395" stroke-width="3.3"/><g fill="#ffe395" mask="url(#i)" opacity=".4"><path d="m33.0942401-11.6666401h4.4999997l-.8059253 92.6829449h-4.4999997z" transform="matrix(.70710678 -.70710678 .70710678 .70710678 20.832694 33.663237)"/><path d="m70.9822721 28.1908262h4.4999998l.9785343 89.3680708h-4.4999997z" transform="matrix(.70710678 -.70710678 .70710678 .70710678 -72.380854 72.273553)"/></g></g><g transform="translate(73.199996 29.399998)"><use fill="#000" filter="url(#b)" xlink:href="#a"/><use fill="#ffe091" fill-rule="evenodd" xlink:href="#a"/></g><g transform="translate(73.199996 29.399998)"><use fill="#faaf4c" fill-rule="evenodd" xlink:href="#c"/><use fill="#000" filter="url(#d)" xlink:href="#c"/><use stroke="#fff" stroke-opacity=".1" stroke-width=".5" xlink:href="#c"/></g><path d="m144.599991 38.9999977c-3.313708 0-5.999999 2.6862913-5.999999 5.9999996s2.686291 5.9999997 5.999999 5.9999997h1.2 31.799998c3.313709 0 6 2.6862913 6 5.9999996s-2.686291 5.9999996-6 5.9999996h-87.8999943c-3.3137083 0-5.9999997-2.6862913-5.9999997-5.9999996s2.6862914-5.9999996 5.9999997-5.9999996h-2.6999999c3.3137083 0 5.9999997-2.6862914 5.9999997-5.9999997s-2.6862914-5.9999996-5.9999997-5.9999996h-11.9999993c-3.3137083 0-5.9999996-2.6862914-5.9999996-5.9999997s2.6862913-5.9999996 5.9999996-5.9999996h40.7999975c3.313708 0 6-2.6862914 6-5.9999997s-2.686292-5.9999996-6-5.9999996h-2.4-12.599999c-3.3137083 0-5.9999997-2.6862913-5.9999997-5.99999964 0-3.3137083 2.6862914-5.99999964 5.9999997-5.99999964h87.899995c3.313708 0 5.999999 2.68629134 5.999999 5.99999964 0 3.31370834-2.686291 5.99999964-5.999999 5.99999964h-14.099999-1.2c-3.313709 0-6 2.6862913-6 5.9999996s2.686291 5.9999997 6 5.9999997h34.499998c3.313708 0 5.999999 2.6862913 5.999999 5.9999996s-2.686291 5.9999997-5.999999 5.9999997z" fill="#000" fill-opacity=".2" filter="url(#e)" mask="url(#j)" transform="translate(73.199996 29.399998)"/><path d="m72.5999957 113.099993 40.6199473 52.799997h24.306229l38.358193-52.799997" stroke="#dd9535" stroke-width="3.6"/><path d="m4.93439971 3.77579977s.44759997-2.63279984-1.37879992-3.77579977c-.05503265.9149148-.49712195 1.76308909-1.21559993 2.33219986-.77999995.68579996-2.24699987 2.22779987-2.23139987 3.87179977-.01143136 1.43355845.79098927 2.74961199 2.07059988 3.3959998.04527356-.64102694.34674177-1.23682675.83639995-1.6529999.41490341-.31908152.68426448-.79143619.74759996-1.31099993 1.09232493.58069155 1.7987894 1.69303125 1.85999988 2.92859983v.0078c1.20728608-.55301644 2.00204662-1.73681087 2.05679988-3.06359982.12959999-1.54439991-.71639996-3.64439978-1.46699991-4.33079974-.28338298.63266902-.72345378 1.18260264-1.27859992 1.5977999z" fill="#f8f3be" fill-rule="nonzero" transform="translate(121.199993 150.299991)"/><path d="m119.100316 168.59999h17.399562c.662741 0 1.2.537258 1.2 1.2 0 .072404-.006553.144659-.019579.215881l-1.975158 10.8c-.104249.570021-.600945.984118-1.180422.984118h-13.449244c-.579476 0-1.076173-.414097-1.180422-.984118l-1.975158-10.8c-.119228-.651929.312611-1.277075.96454-1.396303.071222-.013025.143478-.019578.215881-.019578z" fill="#e0983a"/><path d="m114.297312 166.79999h21.605361c.828427 0 1.5.671573 1.5 1.5 0 .089987-.008098.179792-.024195.268328l-2.454546 13.499999c-.129679.713236-.750875 1.231672-1.475804 1.231672h-16.69627c-.72493 0-1.346126-.518436-1.475805-1.231672l-2.454546-13.499999c-.148193-.815064.392413-1.595939 1.207477-1.744133.088536-.016097.178341-.024195.268328-.024195z" stroke="#dd9535" stroke-width="3.6"/><rect fill="#dd9535" height="5.4" rx="2.25" width="4.5" x="122.699993" y="161.69999"/><g fill="url(#f)" transform="translate(145.199991 183.299989)"><path d="m52.7999969 23.7702706c2.5113906-.7167755 4.3499997-3.0288085 4.3499997-5.7702717s-1.8386091-5.0534962-4.3499997-5.7702716c.5242204-.1496176 1.0777547-.229728 1.6499999-.229728h-16.949999c-3.3137083 0-5.9999997-2.68629136-5.9999997-5.99999966s2.6862914-5.99999964 5.9999997-5.99999964h65.6999962c3.313708 0 5.999999 2.68629134 5.999999 5.99999964s-2.686291 5.99999966-5.999999 5.99999966h-17.2499991c.7387925 0 1.446398.1335271 2.0999999.3777646-2.2780006.8512416-3.8999998 3.0473192-3.8999998 5.622235s1.6219992 4.7709935 3.8999998 5.6222351c-.6536019.2442374-1.3612074.3777646-2.0999999.3777646h-15.7499991 21.2999987c3.3137083 0 5.9999997 2.6862913 5.9999997 5.9999996s-2.6862914 5.9999997-5.9999997 5.9999997h-41.9999975c-3.3137083 0-5.9999996-2.6862914-5.9999996-5.9999997s2.6862913-5.9999996 5.9999996-5.9999996h20.6999988-15.749999c-.5722452 0-1.1257795-.0801104-1.6499999-.229728z"/><rect height="11.999999" opacity=".354789" rx="6" width="48.299997" x="118.199993"/><rect height="11.999999" opacity=".354789" rx="6" width="22.499999" x="105.899994" y="23.999999"/><rect height="11.999999" opacity=".354789" rx="6" width="22.499999"/></g><path d="m220.799987 65.3999961c-3.313708 0-6 2.6862913-6 5.9999996s2.686292 5.9999997 6 5.9999997h1.2 31.799998c3.313708 0 6 2.6862913 6 5.9999996s-2.686292 5.9999997-6 5.9999997h-87.899995c-3.313708 0-6-2.6862914-6-5.9999997s2.686292-5.9999996 6-5.9999996h-2.7c3.313709 0 6-2.6862914 6-5.9999997s-2.686291-5.9999996-6-5.9999996h-11.999999c-3.313708 0-6-2.6862913-6-5.9999996s2.686292-5.9999997 6-5.9999997h40.799998c3.313708 0 5.999999-2.6862913 5.999999-5.9999996s-2.686291-5.9999997-5.999999-5.9999997h-2.4-12.6c-3.313708 0-5.999999-2.6862913-5.999999-5.9999996s2.686291-5.9999997 5.999999-5.9999997h87.899995c3.313709 0 6 2.6862914 6 5.9999997s-2.686291 5.9999996-6 5.9999996h-14.099999-1.2c-3.313708 0-6 2.6862914-6 5.9999997s2.686292 5.9999996 6 5.9999996h34.499998c3.313708 0 6 2.6862914 6 5.9999997s-2.686292 5.9999996-6 5.9999996z" fill="#f7eba2"/><g transform="matrix(-1 0 0 1 287.799981 160.79999)"><use fill="#000" filter="url(#h)" xlink:href="#g"/><use fill="#dd9535" fill-rule="evenodd" xlink:href="#g"/><path d="m129.699991 10.2139394v7.0221196c0 .4970562.402944.8999999.9.8999999.232586 0 .456142-.0900425.623798-.2512502l3.651502-3.5110598c.358294-.344514.369466-.9142529.024952-1.2725475-.008154-.0084796-.016473-.0167985-.024952-.0249519l-3.651502-3.51105983c-.358295-.34451402-.928034-.33334267-1.272548.02495191-.161208.16765598-.25125.39121138-.25125.62379782z" fill="#faaf4c"/></g><g transform="matrix(.9998477 .01745241 -.01745241 .9998477 159.937957 162.962245)"><path d="m108.018598 16.6865638c-36.0606692 4.6544847-72.0668717 5.1033624-108.01860766 1.3466332" transform="matrix(-1 0 0 1 108.018588 0)"/><text fill="#f8f3be" font-family="GillSans-Bold, Gill Sans" font-size="15.75" font-weight="bold" letter-spacing=".0984374955"><tspan x="5.69999" y="14.99999">Your ad space</tspan></text></g><g fill="#f7eba2" transform="translate(75.299996 164.09999)"><rect height="1.683673" rx=".841837" width="2.908163" y="2.908163"/><rect height="1.683673" rx=".841837" width="2.908163" x="4.591836" y="2.908163"/><g transform="matrix(0 1 -1 0 4.591836 0)"><rect height="1.683673" rx=".841837" width="2.908163"/><rect height="1.683673" rx=".841837" width="2.908163" x="4.591836"/></g></g></g></g></svg>